<?xml version="1.0" encoding="UTF-8"?>
<svg version="1.1" xmlns="http://www.w3.org/2000/svg" width="240" height="240">
<path d="M0 0 C1.71388916 0.01353516 1.71388916 0.01353516 3.46240234 0.02734375 C12.00549211 0.20256166 19.20612575 1.02998441 27.125 4.4375 C27.7658252 4.71126465 28.40665039 4.9850293 29.06689453 5.26708984 C41.3048083 10.6137512 51.97984312 17.65067062 60.125 28.4375 C60.125 29.0975 60.125 29.7575 60.125 30.4375 C60.76824219 30.52386719 61.41148437 30.61023438 62.07421875 30.69921875 C73.78813213 32.52064037 84.34745035 36.74339329 94.125 43.4375 C94.93453125 43.98792969 95.7440625 44.53835937 96.578125 45.10546875 C112.03044313 56.50033857 121.6724183 73.71967639 125.125 92.4375 C125.53214654 96.74001274 125.60134685 100.99279447 125.5625 105.3125 C125.55855225 106.45001709 125.55460449 107.58753418 125.55053711 108.75952148 C125.42438982 116.14520775 124.70022566 122.46064295 122.09765625 129.41015625 C119.41993976 137.7444144 120.43689543 144.44327886 122.5625 152.8125 C127.27654217 171.51861961 127.27654217 171.51861961 123.375 178.625 C115.07589655 183.25334615 104.0214913 179.87672652 95.25 177.875 C93.0881903 177.3844946 90.92415528 176.90367424 88.7578125 176.43359375 C87.81824707 176.21888428 86.87868164 176.0041748 85.91064453 175.78295898 C80.48907773 175.11060868 75.849227 176.84185975 70.75 178.5 C50.5718966 184.31262238 29.12368838 180.63028717 10.9375 170.7890625 C4.86154851 167.23965334 0.0182559 162.45065191 -4.875 157.4375 C-5.80957031 156.54417969 -6.74414062 155.65085938 -7.70703125 154.73046875 C-9.875 152.4375 -9.875 152.4375 -9.875 150.4375 C-11.41220703 150.14746094 -11.41220703 150.14746094 -12.98046875 149.8515625 C-14.34119601 149.58880137 -15.70187033 149.32576602 -17.0625 149.0625 C-17.73603516 148.93617188 -18.40957031 148.80984375 -19.10351562 148.6796875 C-22.04763222 148.10522573 -24.740813 147.49609432 -27.49609375 146.29296875 C-30.5736568 145.18625889 -32.54343192 145.54977595 -35.75 146.125 C-36.89082031 146.32222656 -38.03164063 146.51945313 -39.20703125 146.72265625 C-41.68843606 147.20625271 -44.1650855 147.7148081 -46.63671875 148.24609375 C-66.25015031 152.45905079 -66.25015031 152.45905079 -73.125 148.625 C-77.86828565 139.98544399 -73.8398102 128.82603466 -71.56445312 119.8671875 C-69.50213916 111.22289686 -69.8192648 104.82647034 -72.9375 96.5 C-77.35866171 81.61704173 -77.03824889 62.76054319 -70.875 48.4375 C-70.60123535 47.7966748 -70.3274707 47.15584961 -70.04541016 46.49560547 C-61.52903877 27.00257764 -48.08353073 13.68396715 -28.8359375 4.875 C-19.35077083 1.20198309 -10.12976547 -0.0963163 0 0 Z " fill="#1A89F3" transform="translate(94.875,29.5625)"/>
<path d="M0 0 C17.1771079 2.57656618 32.12134439 10.20760165 44 23 C44.88945312 23.86431641 44.88945312 23.86431641 45.796875 24.74609375 C52.42178115 31.53790645 56.30292532 39.36993479 60 48 C60.45890625 49.06605469 60.9178125 50.13210937 61.390625 51.23046875 C66.4779589 65.65055251 66.32662958 84.67620417 60.97265625 98.97265625 C58.29493976 107.3069144 59.31189543 114.00577886 61.4375 122.375 C66.15154217 141.08111961 66.15154217 141.08111961 62.25 148.1875 C53.95089655 152.81584615 42.8964913 149.43922652 34.125 147.4375 C31.9631903 146.9469946 29.79915528 146.46617424 27.6328125 145.99609375 C26.69324707 145.78138428 25.75368164 145.5666748 24.78564453 145.34545898 C19.36407773 144.67310868 14.724227 146.40435975 9.625 148.0625 C-10.5531034 153.87512238 -32.00131162 150.19278717 -50.1875 140.3515625 C-56.26345149 136.80215334 -61.1067441 132.01315191 -66 127 C-66.93457031 126.10667969 -67.86914062 125.21335937 -68.83203125 124.29296875 C-71 122 -71 122 -71 120 C-70.0570105 119.93268677 -70.0570105 119.93268677 -69.0949707 119.86401367 C-42.03809341 117.87675743 -22.56250801 112.76186204 -3.734375 92.5703125 C6.8795818 80.21437042 12.09166871 65.12976168 13 49 C13.05285156 48.10023437 13.10570312 47.20046875 13.16015625 46.2734375 C13.64232557 30.38281384 8.70435656 15.18088279 0 2 C0 1.34 0 0.68 0 0 Z " fill="#6352C8" transform="translate(156,60)"/>
</svg>
